<svg width="48" height="48" viewBox="0 0 48 48" fill="none" xmlns="http://www.w3.org/2000/svg">
<rect width="48" height="48" rx="24" fill="white" fill-opacity="0.2"/>
<path d="M18.865 17.865C20.2551 16.7001 22.0456 16 23.9999 16C28.4182 16 31.9999 19.5817 31.9999 24C31.9999 24.5523 32.4477 25 32.9999 25C33.5522 25 33.9999 24.5523 33.9999 24C33.9999 18.4772 29.5228 14 23.9999 14C21.4928 14 19.201 14.9233 17.4466 16.4466L15.8536 14.8536C15.5386 14.5386 15 14.7617 15 15.2071V19.5C15 19.7761 15.2239 20 15.5 20H19.7929C20.2383 20 20.4614 19.4614 20.1464 19.1464L18.865 17.865Z" fill="white"/>
<path d="M15 23C15.5523 23 16 23.4477 16 24C16 28.4183 19.5817 32 24 32C25.9546 32 27.7448 31.2999 29.1349 30.1349L27.8536 28.8536C27.5386 28.5386 27.7617 28 28.2071 28H32.5C32.7761 28 33 28.2239 33 28.5V32.7929C33 33.2383 32.4614 33.4614 32.1464 33.1464L30.5534 31.5534C28.799 33.0767 26.5069 34 24 34C18.4772 34 14 29.5228 14 24C14 23.4477 14.4477 23 15 23Z" fill="white"/>
</svg>
