<svg width="24" height="24" viewBox="0 0 24 24" fill="none" xmlns="http://www.w3.org/2000/svg">
<path fill-rule="evenodd" clip-rule="evenodd" d="M6 4C3.79086 4 2 5.79086 2 8V16C2 18.2091 3.79086 20 6 20H18C20.2091 20 22 18.2091 22 16V8C22 5.79086 20.2091 4 18 4H6ZM8 12C9.10455 12 10 11.1045 10 10C10 8.89551 9.10455 8 8 8C6.89545 8 6 8.89551 6 10C6 11.1045 6.89545 12 8 12ZM13 10C13 9.44775 13.4477 9 14 9H18C18.5523 9 19 9.44775 19 10C19 10.5522 18.5523 11 18 11H14C13.4477 11 13 10.5522 13 10ZM13 14C13 13.4478 13.4477 13 14 13H16C16.5523 13 17 13.4478 17 14C17 14.5522 16.5523 15 16 15H14C13.4477 15 13 14.5522 13 14ZM5 15C5 13.8955 5.89545 13 7 13H9C10.1046 13 11 13.8955 11 15V16H5V15Z" fill="#286EEB"/>
</svg>
